<svg viewBox="0 0 430 174" fill="none" xmlns="http://www.w3.org/2000/svg">
  <rect x="80.1418" y="27.3701" width="142.992" height="39.0086" rx="19.5043"
    transform="rotate(98.9234 80.1418 27.3701)" fill="#345BAC" />
  <rect x="141.523" y="7.32663" width="125.695" height="39.0086" rx="19.5043" transform="rotate(67 141.523 7.32663)"
    fill="#345BAC" />
  <rect x="61.1691" y="16.0465" width="112.301" height="39.0086" rx="19.5043" transform="rotate(52 61.1691 16.0465)"
    fill="#345BAC" />
  <rect x="156.208" y="22.1044" width="112.487" height="39.0086" rx="19.5043" transform="rotate(112 156.208 22.1044)"
    fill="#345BAC" />
  <rect x="200.69" y="95.5669" width="74.1425" height="22.8165" rx="11.4083" transform="rotate(12.7407 200.69 95.5669)"
    fill="#3E6ED0" />
  <rect x="191.383" y="58.9638" width="73.5199" height="22.8165" rx="11.4083"
    transform="rotate(-19.1827 191.383 58.9638)" fill="#3E6ED0" />
  <rect x="193.343" y="106.199" width="65.686" height="22.8165" rx="11.4083"
    transform="rotate(-34.1827 193.343 106.199)" fill="#3E6ED0" />
  <rect x="200.579" y="50.9686" width="65.7949" height="22.8165" rx="11.4083"
    transform="rotate(25.8173 200.579 50.9686)" fill="#3E6ED0" />
  <rect x="346.794" y="128.852" width="113.272" height="31.7068" rx="15.8534"
    transform="rotate(-62.0592 346.794 128.852)" fill="#4883FE" />
  <rect x="294.317" y="127.997" width="102.166" height="31.7068" rx="15.8534"
    transform="rotate(-93.9826 294.317 127.997)" fill="#4883FE" />
  <rect x="358.374" y="142.578" width="91.2802" height="31.7068" rx="15.8534"
    transform="rotate(-108.983 358.374 142.578)" fill="#4883FE" />
  <rect x="286.946" y="112.751" width="91.4315" height="31.7068" rx="15.8534"
    transform="rotate(-48.9826 286.946 112.751)" fill="#4883FE" />
</svg>